<svg viewBox="0 0 206.113 171.236" height="171.236" width="206.113" xmlns="http://www.w3.org/2000/svg" data-name="Group 1997" id="Group_1997">
  <g transform="translate(37.268 17.819)" id="XMLID_260_">
    <path transform="translate(-52.7 -39)" d="M67.694,39V50.952H57.807V39a9.986,9.986,0,1,0,14.885,8.692A9.736,9.736,0,0,0,67.694,39Z" id="XMLID_261_"></path>
  </g>
  <g transform="translate(134.834 17.819)" id="XMLID_258_">
    <path transform="translate(-142.496 -39)" d="M147.5,39V50.952h9.887V39A9.986,9.986,0,1,1,142.5,47.692,9.736,9.736,0,0,1,147.5,39Z" id="XMLID_259_"></path>
  </g>
  <rect transform="translate(76.817 119.952)" height="47.373" width="14.451" id="XMLID_83_"></rect>
  <rect transform="translate(100.178 119.952)" height="47.373" width="14.451" id="XMLID_82_"></rect>
  <path transform="translate(-7.29 -20.013)" d="M156.035,96.178,153.862,52.5h-4.237L146.8,96.178Z" id="XMLID_81_"></path>
  <path transform="translate(-9.012 -16.535)" d="M126.9,100.958s15.211,2.064,21.622-8.258l10,2.825A63.559,63.559,0,0,1,126.9,120.95Z" id="XMLID_80_"></path>
  <circle fill="#fff" transform="translate(138.641 73.558)" r="5.433" cy="5.433" cx="5.433" id="XMLID_79_"></circle>
  <path transform="translate(-7.489 -16.881)" d="M151.562,102.825a7.062,7.062,0,1,1,7.062-7.062A7.048,7.048,0,0,1,151.562,102.825Zm0-10.757a3.8,3.8,0,1,0,3.8,3.8A3.779,3.779,0,0,0,151.562,92.068Z" id="XMLID_76_"></path>
  <circle fill="#fff" transform="translate(77.034 137.446)" r="6.519" cy="6.519" cx="6.519" id="XMLID_74_"></circle>
  <path transform="translate(-12.395 -11.784)" d="M95.949,163.9a8.149,8.149,0,1,1,0-16.3c4.455,0,6.519,3.694,6.519,8.149S100.4,163.9,95.949,163.9Zm0-13.147a4.985,4.985,0,0,0-5,5,5,5,0,0,0,10,0A4.985,4.985,0,0,0,95.949,150.751Z" id="XMLID_71_"></path>
  <circle fill="#fff" transform="translate(101.481 137.446)" r="6.519" cy="6.519" cx="6.519" id="XMLID_69_"></circle>
  <path transform="translate(-10.379 -11.784)" d="M118.38,163.9c-4.455,0-7.28-3.694-7.28-8.149s2.716-8.149,7.28-8.149a8.149,8.149,0,0,1,0,16.3Zm0-13.147a4.985,4.985,0,0,0-5,5,5,5,0,0,0,10,0A4.985,4.985,0,0,0,118.38,150.751Z" id="XMLID_66_"></path>
  <path transform="translate(-14.991 -20.013)" d="M57.8,96.178,59.864,52.5H64.1l2.825,43.678Z" id="XMLID_64_"></path>
  <path transform="translate(-15.06 -16.535)" d="M88.618,100.958S73.407,103.022,67,92.7L57,95.525A63.559,63.559,0,0,0,88.618,120.95V100.958Z" id="XMLID_63_"></path>
  <circle fill="#fff" transform="translate(41.94 73.558)" r="5.433" cy="5.433" cx="5.433" id="XMLID_62_"></circle>
  <path transform="translate(-15.19 -16.881)" d="M62.562,102.825a7.062,7.062,0,1,1,7.062-7.062A7.048,7.048,0,0,1,62.562,102.825Zm0-10.757a3.8,3.8,0,1,0,3.8,3.8A3.85,3.85,0,0,0,62.562,92.068Z" id="XMLID_59_"></path>
  <path transform="translate(-12.464 -19.615)" d="M87,101.322l.217-23.034a21.516,21.516,0,0,1,43.026.652l-.326,25.425-7.388-.109.326-25.425a14.486,14.486,0,0,0-4.02-10.1,13.8,13.8,0,0,0-10-4.237,14.486,14.486,0,0,0-10.1,4.02,13.8,13.8,0,0,0-4.237,10l-.326,23.034Z" id="XMLID_57_"></path>
  <circle transform="translate(85.727 61.063)" r="3.151" cy="3.151" cx="3.151" id="XMLID_56_"></circle>
  <circle transform="translate(100.504 61.063)" r="3.151" cy="3.151" cx="3.151" id="XMLID_55_"></circle>
  <circle transform="translate(67.473 71.493)" r="28.684" cy="28.684" cx="28.684" id="XMLID_54_"></circle>
  <path fill="#fff" transform="translate(-11.218 -15.903)" d="M104.768,111.409l-1.087,20.535h8.04l-1.63-20.644a5.849,5.849,0,0,0,3.26-5.324,5.976,5.976,0,1,0-11.952,0A6.181,6.181,0,0,0,104.768,111.409Z" id="XMLID_53_"></path>
  <path transform="translate(-13.009 -9.872)" d="M107.211,181.109a13.405,13.405,0,0,0-26.511,0h26.511Z" id="XMLID_52_"></path>
  <path transform="translate(-10.63 -9.872)" d="M134.711,181.109a13.405,13.405,0,0,0-26.511,0h26.511Z" id="XMLID_51_"></path>
  <path transform="translate(-18.4 -22.6)" d="M45.563,33.791c-2.934-4.346-7.062-6.845-11.409-6.845-4.455,0-8.475,2.39-11.517,6.736A26.9,26.9,0,0,0,18.4,48.568a26.9,26.9,0,0,0,4.237,14.885C25.571,67.8,29.7,70.19,34.046,70.19s8.475-2.39,11.517-6.736a23.24,23.24,0,0,0,3.8-9.887,1.5,1.5,0,0,1,1.412-1.2l172.214.109a1.622,1.622,0,0,0,1.521-1.412V46.5a1.622,1.622,0,0,0-1.413-1.521h-5.215a1.464,1.464,0,0,1-1.412-1.521V24.121a1.622,1.622,0,0,0-1.412-1.521H193.331a1.622,1.622,0,0,0-1.521,1.412v19.34a1.464,1.464,0,0,1-1.521,1.412h-1.3a1.464,1.464,0,0,1-1.412-1.521V28.467a1.622,1.622,0,0,0-1.413-1.521h-3.368a1.622,1.622,0,0,0-1.521,1.412V43.135a1.464,1.464,0,0,1-1.521,1.412H50.887a1.413,1.413,0,0,1-1.412-1.2A26.542,26.542,0,0,0,45.563,33.791ZM34.046,64.105c-5.215,0-9.67-7.171-9.67-15.537s4.455-15.537,9.779-15.537,9.67,7.171,9.67,15.537S39.261,64.105,34.046,64.105Z" id="XMLID_236_"></path>
  <g transform="translate(37.268 17.819)" id="XMLID_45_">
    <path transform="translate(-52.7 -39)" d="M69.976,53.668c-.761-1.087-1.521-1.63-2.282-2.716H57.807V39A9.979,9.979,0,0,0,62.7,57.688,10.259,10.259,0,0,0,70.3,54.211C70.3,53.994,70.084,53.885,69.976,53.668Z" id="XMLID_46_"></path>
  </g>
  <g transform="translate(137.337 17.819)" id="XMLID_21_">
    <path transform="translate(-144.8 -39)" d="M145.126,53.668c.761-1.087.978-1.63,1.738-2.716H157.3V39a9.979,9.979,0,0,1-4.889,18.688,10.259,10.259,0,0,1-7.606-3.477C144.8,53.994,144.909,53.885,145.126,53.668Z" id="XMLID_22_"></path>
  </g>
</svg>
